<?xml version="1.0" encoding="UTF-8" standalone="no"?>
<!-- Created with Inkscape (http://www.inkscape.org/) -->

<svg
   width="65.599754mm"
   height="45.569008mm"
   viewBox="0 0 65.599754 45.569008"
   version="1.1"
   id="svg8"
   inkscape:version="1.1 (c68e22c387, 2021-05-23)"
   sodipodi:docname="heatmap.svg"
   xmlns:inkscape="http://www.inkscape.org/namespaces/inkscape"
   xmlns:sodipodi="http://sodipodi.sourceforge.net/DTD/sodipodi-0.dtd"
   xmlns="http://www.w3.org/2000/svg"
   xmlns:svg="http://www.w3.org/2000/svg"
   xmlns:rdf="http://www.w3.org/1999/02/22-rdf-syntax-ns#"
   xmlns:cc="http://creativecommons.org/ns#"
   xmlns:dc="http://purl.org/dc/elements/1.1/">
  <defs
     id="defs2" />
  <sodipodi:namedview
     id="base"
     pagecolor="#ffffff"
     bordercolor="#666666"
     borderopacity="1.0"
     inkscape:pageopacity="0.0"
     inkscape:pageshadow="2"
     inkscape:zoom="1.4"
     inkscape:cx="-14.642857"
     inkscape:cy="77.5"
     inkscape:document-units="mm"
     inkscape:current-layer="layer1"
     showgrid="false"
     inkscape:window-width="1920"
     inkscape:window-height="1017"
     inkscape:window-x="-8"
     inkscape:window-y="-8"
     inkscape:window-maximized="1"
     inkscape:pagecheckerboard="0" />
  <metadata
     id="metadata5">
    <rdf:RDF>
      <cc:Work
         rdf:about="">
        <dc:format>image/svg+xml</dc:format>
        <dc:type
           rdf:resource="http://purl.org/dc/dcmitype/StillImage" />
        <dc:title />
      </cc:Work>
    </rdf:RDF>
  </metadata>
  <g
     inkscape:label="Layer 1"
     inkscape:groupmode="layer"
     id="layer1"
     transform="translate(-70.774502,-81.271433)">
    <path
       style="fill:none;stroke:#000000;stroke-width:2;stroke-linecap:butt;stroke-linejoin:miter;stroke-miterlimit:4;stroke-dasharray:none;stroke-opacity:1"
       d="m 93.738093,85.711309 c -1.763887,0 -3.527777,0 -5.291667,0 -0.503967,0 -1.033798,-0.159369 -1.511903,0 -0.430959,0.143653 -0.693221,0.645774 -1.13393,0.755952 -0.61115,0.152786 -1.272154,-0.123545 -1.889879,0 -0.665313,0.133062 -1.246211,0.541396 -1.889882,0.755952 -0.492821,0.164274 -1.047268,0.145658 -1.511906,0.377975 -0.755951,0.377976 -0.566962,0.755955 -1.133927,1.13393 -0.23441,0.156274 -0.556742,0.178766 -0.755952,0.377976 -0.199212,0.19921 -0.221702,0.521542 -0.377975,0.755952 -0.09884,0.148254 -0.279141,0.229722 -0.377979,0.377976 -0.125992,0.251984 -0.251984,0.50397 -0.377976,0.755954 -0.251984,0 -0.57777,-0.178181 -0.755951,0 -0.178179,0.178178 0.07968,0.516898 0,0.755952 -0.05635,0.169037 -0.279141,0.229721 -0.377976,0.377975 -0.156274,0.234411 -0.288888,0.488683 -0.377976,0.755952 -0.03984,0.119528 0.08909,0.288888 0,0.377976 -0.08909,0.08909 -0.251984,0 -0.377976,0 -0.125992,0.251986 -0.288888,0.488683 -0.377978,0.755954 -0.188987,0.566962 0.377978,0.377976 0,1.133928 -0.159367,0.318738 -0.623602,0.425082 -0.755952,0.755951 -0.140377,0.350943 0.06214,0.761095 0,1.13393 -0.131,0.786001 -0.537043,1.501672 -0.755951,2.267858 -0.142711,0.499491 -0.213704,1.019078 -0.377976,1.511898 -0.08909,0.26728 -0.322726,0.4797 -0.377976,0.75596 -0.148257,0.74127 0.148254,1.52658 0,2.26785 -0.05525,0.27626 -0.322726,0.4797 -0.377978,0.75596 -0.07413,0.37063 0.06214,0.76109 0,1.13393 -0.130998,0.786 -0.643261,1.47902 -0.755952,2.26785 -0.07127,0.49891 0,1.00794 0,1.51191 0,0.88194 0,1.76389 0,2.64583 0,0.88195 0,1.76389 0,2.64584 0,0.25198 -0.06111,0.51149 0,0.75595 0.06833,0.27331 0.288888,0.48868 0.377976,0.75595 0.07968,0.23905 -0.112689,0.53057 0,0.75595 0.159369,0.31874 0.596585,0.43722 0.755954,0.75595 0.05634,0.1127 -0.08909,0.28889 0,0.37798 0.08909,0.0891 0.265284,-0.0563 0.377976,0 0.5789,0.28945 0.295582,0.67356 0.755951,1.13393 0.19921,0.19921 0.521542,0.2217 0.755952,0.37797 0.148254,0.0988 0.229722,0.27914 0.377976,0.37798 0.234413,0.15628 0.488683,0.28889 0.755954,0.37798 0.119526,0.0398 0.288885,-0.0891 0.377976,0 0.19921,0.19921 0.178766,0.55674 0.377976,0.75595 0.19921,0.19921 0.521541,0.2217 0.755951,0.37798 0.148254,0.0988 0.208942,0.32163 0.377976,0.37797 0.239054,0.0797 0.516901,-0.0797 0.755954,0 0.169035,0.0563 0.251984,0.25199 0.377976,0.37798 0.251984,0.25198 0.437214,0.59658 0.755952,0.75595 0.225382,0.11269 0.530571,-0.11269 0.755951,0 0.318739,0.15937 0.459444,0.55828 0.755955,0.75595 0.10483,0.0699 0.265284,-0.0563 0.377975,0 0.15937,0.0797 0.251984,0.25199 0.377976,0.37798 0.251984,0 0.516901,-0.0797 0.755952,0 0.169037,0.0563 0.251984,0.25198 0.377976,0.37797 0.251986,0.126 0.482639,0.30965 0.755954,0.37798 0.244459,0.0611 0.503968,0 0.755952,0 0.125992,0 0.265284,-0.0563 0.377975,0 0.15937,0.0797 0.208942,0.32163 0.377976,0.37798 0.239054,0.0797 0.511493,-0.0611 0.755954,0 0.273315,0.0683 0.488683,0.28888 0.755952,0.37797 0.119526,0.0399 0.251984,0 0.377976,0 0.251984,0 0.503968,0 0.755952,0 0.881946,0 1.763889,0 2.645833,0 1.259922,0 2.519841,0 3.779763,0 0.62996,0 1.272154,0.12355 1.889879,0 0.276257,-0.0553 0.479698,-0.32272 0.755954,-0.37797 0.741273,-0.14826 1.522191,0.12428 2.267858,0 0.392999,-0.0655 0.743242,-0.29984 1.133932,-0.37798 0.24709,-0.0494 0.53057,0.11269 0.75595,0 0.31874,-0.15937 0.43721,-0.59658 0.75595,-0.75595 0.58094,-0.29047 2.92461,-0.57701 3.40179,-0.75595 0.42534,-0.15951 0.71881,-0.57146 1.13392,-0.75595 0.72817,-0.32363 1.52801,-0.46002 2.26786,-0.75596 0.52315,-0.20926 0.97737,-0.57777 1.51191,-0.75595 0.60946,-0.20316 1.28041,-0.17482 1.88988,-0.37798 0.53454,-0.17818 1.00793,-0.50396 1.5119,-0.75595 0.50397,-0.25198 1.02269,-0.4764 1.51191,-0.75595 0.39441,-0.22538 0.72761,-0.5528 1.13393,-0.75595 0.35635,-0.17818 0.77756,-0.1998 1.13392,-0.37798 0.40632,-0.20316 0.72762,-0.5528 1.13393,-0.75595 2.16348,-1.08174 0.23856,0.23484 1.88988,-0.75596 0.38954,-0.23371 0.72762,-0.55279 1.13393,-0.75595 0.35636,-0.17818 0.77757,-0.19979 1.13393,-0.37797 0.40631,-0.20316 0.75595,-0.50397 1.13393,-0.75595 0.37798,-0.25199 0.78495,-0.46514 1.13393,-0.75596 0.41064,-0.3422 0.72328,-0.79172 1.13393,-1.13393 0.34898,-0.29081 0.81271,-0.43473 1.13392,-0.75595 0.32122,-0.32122 0.47218,-0.7792 0.75596,-1.13393 0.22261,-0.27827 0.47086,-0.54213 0.75595,-0.75595 0.22538,-0.16904 0.58691,-0.1526 0.75595,-0.37798 0.23906,-0.31873 0.13892,-0.81519 0.37798,-1.13393 0.16903,-0.22538 0.52154,-0.2217 0.75595,-0.37797 0.14826,-0.0988 0.25199,-0.25198 0.37798,-0.37798 0.25198,-0.25198 0.50397,-0.50396 0.75595,-0.75595 0.12599,-0.12599 0.27914,-0.22972 0.37797,-0.37797 0.15628,-0.23442 0.17877,-0.55675 0.37798,-0.75596 0.19921,-0.19921 0.55674,-0.17876 0.75595,-0.37797 0.0744,-0.0744 1.1002,-2.13293 1.13393,-2.26786 0.0611,-0.24446 -0.0611,-0.51149 0,-0.75595 0.13666,-0.54663 0.57778,-0.97737 0.75595,-1.51191 0.0797,-0.23905 0,-0.50397 0,-0.75595 0,-0.25198 0,-0.503969 0,-0.755953 0,-0.125991 0.0564,-0.265284 0,-0.377975 -0.0797,-0.159369 -0.29829,-0.21861 -0.37797,-0.377976 -0.17818,-0.356359 -0.23001,-0.764003 -0.37798,-1.13393 -0.10463,-0.261575 -0.27334,-0.494374 -0.37797,-0.755952 -1.52193,-3.804811 0.29512,0.802516 -0.37798,-1.889881 -0.57601,-2.304032 -0.12986,0.998267 -1.13393,-1.511904 -0.14038,-0.350943 0.16904,-0.795858 0,-1.13393 -0.12599,-0.251984 -0.55674,-0.178766 -0.75595,-0.377976 -0.0891,-0.08909 0.0699,-0.273145 0,-0.377975 -0.44721,-0.67082 -1.39913,-1.235544 -1.88988,-1.889882 -1.00794,-2.015874 0.37797,0.377976 -1.13393,-1.133928 -0.19921,-0.199212 -0.2217,-0.521541 -0.37798,-0.755954 -0.0988,-0.148254 -0.25198,-0.251984 -0.37797,-0.377976 -0.25199,-0.251983 -0.50397,-0.503967 -0.75596,-0.755951 -0.12599,-0.125992 -0.22972,-0.279141 -0.37797,-0.377976 -0.23441,-0.156274 -0.52154,-0.221702 -0.75595,-0.377976 -0.69887,-0.46591 -0.0571,-0.66802 -0.75596,-1.13393 -0.20966,-0.139774 -0.5169,0.07968 -0.75595,0 -0.16903,-0.05635 -0.22972,-0.279138 -0.37797,-0.377976 -0.23442,-0.156273 -0.48869,-0.288885 -0.75596,-0.377975 -0.11952,-0.03984 -0.28888,0.08909 -0.37797,0 -0.19922,-0.199211 -0.14357,-0.599679 -0.37798,-0.755952 -1.13393,-0.755954 -0.37798,0.377976 -1.13393,0 -0.15937,-0.07968 -0.2186,-0.298291 -0.37797,-0.377976 -0.22539,-0.112691 -0.53058,0.112689 -0.75596,0 -0.15936,-0.07968 -0.2186,-0.298294 -0.37797,-0.377978 -0.24751,-0.123751 -1.55445,0.11181 -1.88988,0 -0.26727,-0.08909 -0.48869,-0.288886 -0.75596,-0.377976 -0.22676,-0.07559 -1.58827,0 -1.88988,0 -1.5119,0 -3.02381,0 -4.53571,0 -0.23422,0 -2.1496,-0.05913 -2.26786,0 -0.11269,0.05634 0.0891,0.288888 0,0.377976 -0.11184,0.111836 -1.27778,-0.11706 -1.5119,0 -0.15937,0.07968 -0.21861,0.298294 -0.37798,0.377978 -0.22538,0.112689 -0.53057,-0.112691 -0.75595,0 -0.15937,0.07968 -0.21861,0.298291 -0.37798,0.377976 -0.11269,0.05635 -0.25198,0 -0.37797,0 -0.25199,0 -0.5169,-0.07968 -0.75596,0 -0.16903,0.05635 -0.2186,0.298291 -0.37797,0.377976 -0.20505,0.102523 -1.40848,-0.103423 -1.51191,0 -0.0891,0.08909 0.0891,0.288885 0,0.377976 -0.0773,0.07727 -0.98406,-0.07493 -1.13393,0 -0.15936,0.07968 -0.2186,0.298291 -0.37797,0.377975 -0.14987,0.07493 -1.05666,-0.07727 -1.13393,0 -0.0891,0.08909 0.0891,0.288888 0,0.377976 -0.091,0.09095 -1.420953,-0.09095 -1.511906,0 -0.08909,0.08909 0.112691,0.321633 0,0.377976 -0.231982,0.115991 -1.655572,-0.117152 -1.889879,0 -0.159369,0.07968 -0.21861,0.298294 -0.377979,0.377978 -0.112688,0.05634 -0.251984,0 -0.377976,0 -0.125992,0 -0.251983,0 -0.377975,0 -0.62996,0 -1.25992,0 -1.889882,0 z"
       id="path3717"
       inkscape:connector-curvature="0" />
    <path
       style="fill:none;stroke:#000000;stroke-width:2;stroke-linecap:butt;stroke-linejoin:miter;stroke-miterlimit:4;stroke-dasharray:none;stroke-opacity:1"
       d="m 84.991708,91.603368 c -0.178178,0.08909 -0.375168,0.147743 -0.534538,0.267269 -0.03564,0.02673 0.02471,0.09657 0,0.133635 -0.104833,0.157248 -0.296074,0.243655 -0.400904,0.400905 -0.05525,0.08288 -0.0632,0.196837 -0.133636,0.267269 -0.07043,0.07043 -0.184391,0.07838 -0.267269,0.133633 -0.05242,0.03495 -0.08122,0.09869 -0.133636,0.133636 -0.08288,0.05525 -0.196836,0.0632 -0.267268,0.133635 -0.07043,0.07043 -0.0632,0.196837 -0.133633,0.267269 -0.07043,0.07043 -0.184394,0.07838 -0.267272,0.133636 -0.307007,0.204671 0.0573,0.07633 -0.267269,0.400902 -0.07043,0.07043 -0.196837,0.0632 -0.267269,0.133636 -0.07043,0.07043 -0.0632,0.196836 -0.133635,0.267269 -0.07043,0.07043 -0.196837,0.0632 -0.267269,0.133635 -0.07043,0.07043 -0.07838,0.184394 -0.133636,0.267269 -0.131093,0.196641 -0.403445,0.3379 -0.534538,0.534541 -0.02471,0.03706 0.02471,0.09657 0,0.133633 0.114351,0.619987 -0.287337,0.153701 -0.400904,0.267271 -0.521542,0.521539 0.03093,0.07177 -0.133636,0.400902 -0.02817,0.05635 -0.08909,0.08909 -0.133633,0.133636 -0.08909,0.08909 -0.197382,0.162438 -0.267272,0.267269 -0.02471,0.03706 0.01992,0.09379 0,0.133635 -0.05635,0.112692 -0.210923,0.154578 -0.267269,0.267269 -0.04199,0.08399 0.042,0.450549 0,0.534541 -0.02817,0.05635 -0.105462,0.07729 -0.133635,0.133633 -0.01992,0.03984 0,0.08909 0,0.133635 -0.04454,0.08909 -0.07838,0.184394 -0.133633,0.267269 -0.03494,0.05242 -0.105463,0.07729 -0.133636,0.133636 -0.01992,0.03984 0.01408,0.09138 0,0.133633 -0.0315,0.0945 -0.08909,0.178181 -0.133633,0.267272 -0.04455,0.08909 -0.07839,0.18439 -0.133636,0.267269 -0.03494,0.05242 -0.113713,0.07387 -0.133636,0.133635 -0.02817,0.08452 0,0.178179 0,0.267272 0,0.0445 0.01992,0.0938 0,0.13363 -0.02817,0.0563 -0.08909,0.0891 -0.133633,0.13364 0,0.0891 0.02817,0.18275 0,0.26726 -0.01992,0.0598 -0.105463,0.0773 -0.133636,0.13364 -0.01992,0.0398 0,0.0891 0,0.13364 0,0.0891 0.02817,0.182753 0,0.267273 -0.03984,0.11952 -0.210923,0.15457 -0.267268,0.26726 -0.063,0.126 -0.06116,0.28012 -0.133636,0.40091 -0.06482,0.10804 -0.210923,0.15458 -0.267269,0.26727 -0.03984,0.0797 0.04942,0.19314 0,0.26727 -0.05525,0.0829 -0.212019,0.0508 -0.267269,0.13363 -0.04942,0.0741 0.02817,0.18276 0,0.26727 -0.01992,0.0598 -0.09869,0.0812 -0.133636,0.13364 -0.05525,0.0829 -0.07838,0.18439 -0.133635,0.26727 -0.03494,0.0524 -0.105461,0.0773 -0.133633,0.13363 -0.01992,0.0398 0.01408,0.0914 0,0.13364 -0.322657,0.96797 0.03853,-0.21069 -0.267269,0.4009 -0.01992,0.0398 0.01408,0.0914 0,0.13363 -0.161489,0.48447 -0.06341,0.0951 -0.267272,0.40091 -0.131085,0.19663 -0.194828,0.45085 -0.267269,0.66817 -0.04454,0.13364 -0.09947,0.26425 -0.133635,0.40091 -0.0108,0.0432 0.01992,0.0938 0,0.13363 -0.02817,0.0564 -0.113713,0.0739 -0.133634,0.13364 -2.01e-4,5.3e-4 1.27e-4,0.40077 0,0.4009 -0.0315,0.0315 -0.113715,-0.0398 -0.133635,0 -0.05976,0.11953 0,0.26727 0,0.40091 0,0.26726 0,0.53453 0,0.8018 0,0.35636 0,0.71272 0,1.06908 0,0.0891 0,0.17818 0,0.26727 0,0.0446 -0.01992,0.0938 0,0.13364 0.203763,0.40752 0.105942,-0.24441 0.267269,0.4009 0.02162,0.0864 0,0.17818 0,0.26727 0,0.0446 -0.01992,0.0938 0,0.13363 0.315526,0.63105 -0.07028,-0.81565 0.267271,0.53454 0.02162,0.0864 -0.02817,0.18275 0,0.26727 0.10001,0.30003 0.24842,0.36321 0.400905,0.66818 0.01992,0.0398 -0.01992,0.0938 0,0.13363 0.02817,0.0563 0.10546,0.0773 0.133633,0.13364 0.01992,0.0398 -0.01992,0.0938 0,0.13363 0.05922,0.11845 0.319804,0.27926 0.400904,0.40091 0.450065,0.67509 0.0011,0.003 0.133636,0.4009 0.0315,0.0945 0.07838,0.18439 0.133633,0.26727 0.03494,0.0524 0.118356,0.0725 0.133636,0.13363 0.03241,0.12965 -0.05976,0.28138 0,0.40091 0.04454,0.0891 0.184393,0.0784 0.267269,0.13363 0.05242,0.0349 0.08909,0.0891 0.133636,0.13364 0.222723,0.22272 0.445449,0.44545 0.668173,0.66817 0.08909,0.0891 0.162438,0.19738 0.267269,0.26727 0.08288,0.0553 0.184393,0.0784 0.267269,0.13364 0.305797,0.20386 -0.08356,0.10578 0.400904,0.26727 0.04226,0.0141 0.102137,-0.0315 0.133636,0 0.07043,0.0704 0.05076,0.21201 0.133636,0.26727 0.07413,0.0494 0.19314,-0.0494 0.267269,0 0.08288,0.0553 0.0632,0.19683 0.133635,0.26727 0.07043,0.0704 0.187585,0.0739 0.267269,0.13363 0.100793,0.0756 0.166476,0.19167 0.267269,0.26727 0.07968,0.0598 0.196837,0.0632 0.267269,0.13363 0.07043,0.0704 0.05395,0.20751 0.133636,0.26727 0.112691,0.0845 0.288213,0.0491 0.400904,0.13364 0.07968,0.0598 0.0632,0.19684 0.133633,0.26727 0.324573,0.32457 0.196234,-0.0397 0.400905,0.26727 0.712719,1.06908 -0.489992,-0.49 0.400905,0.4009 0.07043,0.0704 0.0632,0.19684 0.133635,0.26727 0.07043,0.0704 0.187585,0.0739 0.267269,0.13363 0.100793,0.0756 0.166476,0.19168 0.267269,0.26728 0.07968,0.0598 0.187587,0.0739 0.267272,0.13363 0.100793,0.0756 0.159231,0.20245 0.267268,0.26727 0.120791,0.0725 0.280115,0.0612 0.400905,0.13363 0.108037,0.0648 0.159232,0.20245 0.267269,0.26727 0.12079,0.0725 0.274913,0.0706 0.400904,0.13364 0.143653,0.0718 0.267269,0.17818 0.400905,0.26727 0.222724,0.0891 0.447688,0.17277 0.668174,0.26727 0.09155,0.0392 0.178178,0.0891 0.267268,0.13363 0.08909,0.0891 0.154581,0.21093 0.267269,0.26727 0.164275,0.0821 0.370266,0.0515 0.534541,0.13364 0.112691,0.0563 0.162438,0.19738 0.267268,0.26727 0.03706,0.0247 0.09657,-0.0247 0.133636,0 0.104831,0.0699 0.159232,0.20244 0.267269,0.26727 0.12079,0.0725 0.264247,0.0995 0.400905,0.13363 0.04321,0.0108 0.09657,-0.0247 0.133635,0 0.104831,0.0699 0.166476,0.19167 0.267269,0.26727 0.07968,0.0598 0.187585,0.0739 0.267269,0.13363 0.100793,0.0756 0.15458,0.21093 0.267269,0.26727 0.267271,0.13364 0.200454,-0.0668 0.400905,0 0.967972,0.32266 -0.210691,-0.0385 0.400904,0.26727 0.08399,0.042 0.450546,-0.042 0.53454,0 0.05634,0.0282 0.07387,0.11372 0.133634,0.13364 0.07184,0.0239 0.421396,0 0.53454,0 0.125457,0 0.5916,0.0255 0.668173,0 0.05976,-0.0199 0.08122,-0.0987 0.133633,-0.13364 0.08288,-0.0553 0.172776,-0.10213 0.267272,-0.13363 0.04226,-0.0141 0.09042,0.0108 0.133633,0 0.59095,-0.14774 0.207349,-0.0829 0.668174,-0.26727 0.130788,-0.0523 0.280117,-0.0612 0.400904,-0.13364 0.108037,-0.0648 0.159234,-0.20244 0.267272,-0.26726 0.120787,-0.0725 0.270115,-0.0813 0.400902,-0.13364 0.09248,-0.037 0.178181,-0.0891 0.267271,-0.13363 0.133633,-0.0891 0.25328,-0.20401 0.400905,-0.26727 0.168812,-0.0724 0.360299,-0.0756 0.534537,-0.13364 0.09449,-0.0315 0.174789,-0.0966 0.267269,-0.13363 0.130789,-0.0523 0.274913,-0.0706 0.400905,-0.13364 0.05635,-0.0282 0.07252,-0.11836 0.133636,-0.13363 1.222224,-0.30556 -0.443138,0.36434 0.801809,-0.13364 0.09248,-0.037 0.174786,-0.0966 0.267269,-0.13363 0.130788,-0.0523 0.280114,-0.0612 0.400904,-0.13364 0.108038,-0.0648 0.166476,-0.19167 0.267269,-0.26727 0.36058,-0.27043 0.218993,0.002 0.668174,-0.26727 0.108037,-0.0648 0.166475,-0.19167 0.267268,-0.26727 0.179086,-0.13431 0.475671,-0.19026 0.668176,-0.26726 0.222077,-0.0888 0.488887,-0.26645 0.668167,-0.40091 0.15119,-0.11339 0.24972,-0.28751 0.40091,-0.4009 0.0797,-0.0598 0.19683,-0.0632 0.26727,-0.13364 0.0704,-0.0704 0.0632,-0.19684 0.13363,-0.26727 0.0704,-0.0704 0.18759,-0.0739 0.26727,-0.13363 0.20159,-0.15119 0.31846,-0.4049 0.53454,-0.53454 0.12079,-0.0725 0.28011,-0.0612 0.4009,-0.13364 0.10804,-0.0648 0.17818,-0.17818 0.26727,-0.26727 0.0891,-0.0891 0.17818,-0.17818 0.26727,-0.26727 0.0891,-0.0891 0.16648,-0.19167 0.26727,-0.26726 0.0797,-0.0598 0.19684,-0.0632 0.26727,-0.13364 0.39795,-0.39795 -0.19987,-0.17408 0.4009,-0.53454 0.1208,-0.0725 0.28012,-0.0612 0.40091,-0.13363 0.10804,-0.0648 0.16648,-0.19168 0.26727,-0.26727 0.0797,-0.0598 0.18758,-0.0739 0.26727,-0.13364 0.10079,-0.0756 0.15146,-0.21764 0.26727,-0.26727 0.20877,-0.0895 0.45269,-0.0618 0.66817,-0.13363 0.18899,-0.063 0.3525,-0.18636 0.53454,-0.26727 0.43841,-0.19485 0.88547,-0.37059 1.33635,-0.53454 0.26476,-0.0963 0.53704,-0.17099 0.80181,-0.26727 0.22544,-0.082 0.44273,-0.18529 0.66817,-0.26727 0.26477,-0.0963 0.54023,-0.16264 0.80181,-0.26727 0.18496,-0.074 0.36561,-0.16169 0.53454,-0.26727 0.24212,-0.15133 0.65273,-0.52682 0.93544,-0.66817 0.79759,-0.3988 0.5101,-0.17557 1.33635,-0.40091 0.2718,-0.0741 0.53454,-0.17818 0.80181,-0.26727 0.53454,-0.17818 1.07408,-0.34198 1.60362,-0.53453 0.45087,-0.16396 0.88546,-0.37059 1.33634,-0.53455 0.26477,-0.0963 0.53802,-0.16834 0.80181,-0.26726 0.0933,-0.035 0.17818,-0.0891 0.26727,-0.13364 0.17818,-0.0891 0.36561,-0.16169 0.53454,-0.26727 0.18887,-0.11804 0.34922,-0.27736 0.53454,-0.4009 0.0829,-0.0553 0.17818,-0.0891 0.26727,-0.13364 0.26727,-0.13363 0.54557,-0.24716 0.80181,-0.4009 0.59764,-0.35859 0.25658,-0.2156 0.93544,-0.66818 0.0829,-0.0553 0.18759,-0.0739 0.26727,-0.13363 0.10079,-0.0756 0.16889,-0.18856 0.26727,-0.26727 0.12541,-0.10033 0.27549,-0.16694 0.4009,-0.26727 0.19677,-0.15741 0.33778,-0.37712 0.53454,-0.53454 0.32875,-0.263 0.42618,-0.21187 0.66818,-0.53454 0.0598,-0.0797 0.0632,-0.19684 0.13363,-0.26727 0.0704,-0.0704 0.18439,-0.0784 0.26727,-0.13363 0.0524,-0.0349 0.0891,-0.0891 0.13364,-0.13364 0.0891,-0.0891 0.17817,-0.17818 0.26726,-0.26726 0.0446,-0.0446 0.0987,-0.0812 0.13364,-0.13364 0.0553,-0.0829 0.0632,-0.19684 0.13364,-0.26727 0.0704,-0.0704 0.19683,-0.0632 0.26726,-0.13364 0.0704,-0.0704 0.0632,-0.19683 0.13364,-0.26726 0.0704,-0.0704 0.19684,-0.0632 0.26727,-0.13364 0.0315,-0.0315 -0.0141,-0.0914 0,-0.13363 0.0315,-0.0945 0.0784,-0.1844 0.13363,-0.26727 0.0349,-0.0524 0.0987,-0.0812 0.13364,-0.13364 0.0553,-0.0829 0.0784,-0.18439 0.13363,-0.26727 0.035,-0.0524 0.10546,-0.0773 0.13364,-0.13363 0.0199,-0.0399 -0.0141,-0.0914 0,-0.13364 0.0315,-0.0945 0.10213,-0.17277 0.13363,-0.26727 0.0272,-0.0815 0,-0.69859 0,-0.80181 0,-0.13363 0.0423,-0.27412 0,-0.4009 -0.0199,-0.0598 -0.10546,-0.0773 -0.13363,-0.133633 -0.0199,-0.0399 0.0315,-0.10214 0,-0.13364 -0.0704,-0.0704 -0.19684,-0.0632 -0.26727,-0.13364 -0.0315,-0.0315 0.0199,-0.0938 0,-0.13363 -0.0563,-0.11269 -0.22743,-0.14774 -0.26727,-0.26727 -0.0282,-0.0845 0.0494,-0.19314 0,-0.267269 -0.51103,-0.25551 -0.12052,0.03935 -0.26727,-0.400904 -0.0512,-0.153504 -0.31904,-0.185407 -0.4009,-0.267269 -0.0315,-0.0315 0.0199,-0.09379 0,-0.133636 -0.0282,-0.05634 -0.0987,-0.08122 -0.13364,-0.133633 -0.0553,-0.08288 -0.0632,-0.196839 -0.13364,-0.267269 -0.0704,-0.07043 -0.19683,-0.0632 -0.26726,-0.133636 -0.0704,-0.07043 -0.0784,-0.184393 -0.13364,-0.267268 -0.0834,-0.125058 -0.44895,-0.448956 -0.53454,-0.534541 -0.0445,-0.04454 -0.0987,-0.08122 -0.13363,-0.133633 -0.0553,-0.08288 -0.0632,-0.196839 -0.13364,-0.267271 -0.0704,-0.07043 -0.18439,-0.07838 -0.26727,-0.133633 -0.0524,-0.03494 -0.0891,-0.08909 -0.13363,-0.133636 -0.0891,-0.08909 -0.17818,-0.178179 -0.26727,-0.267269 -0.0446,-0.04454 -0.0987,-0.08122 -0.13364,-0.133636 -0.0553,-0.08288 -0.0632,-0.196837 -0.13363,-0.267269 -0.0704,-0.07043 -0.19684,-0.0632 -0.26727,-0.133635 -0.0704,-0.07043 -0.0632,-0.196837 -0.13364,-0.267269 -0.0704,-0.07043 -0.18439,-0.07838 -0.26727,-0.133636 -0.0524,-0.03494 -0.0891,-0.08909 -0.13363,-0.133633 -0.0891,-0.08909 -0.17818,-0.178181 -0.26727,-0.267269 -0.0446,-0.04454 -0.0987,-0.08122 -0.13363,-0.133636 -0.71272,-1.069078 0.48999,0.489995 -0.40091,-0.400904 -0.0704,-0.07043 -0.0632,-0.196837 -0.13363,-0.267269 -0.0704,-0.07043 -0.1844,-0.07839 -0.26727,-0.133636 -0.11008,-0.07338 -0.29083,-0.327522 -0.40091,-0.400904 -0.0371,-0.02471 -0.0938,0.01992 -0.13363,0 -0.0563,-0.02817 -0.0891,-0.08909 -0.13364,-0.133634 -0.0891,-0.08909 -0.16243,-0.197381 -0.26727,-0.267271 -0.0371,-0.02471 -0.0938,0.01992 -0.13363,0 -0.0564,-0.02817 -0.0891,-0.08909 -0.13364,-0.133633 -0.0891,0 -0.18275,0.02817 -0.26726,0 -0.0598,-0.01992 -0.0773,-0.105463 -0.13364,-0.133636 -0.0398,-0.01992 -0.0914,0.01408 -0.13363,0 -0.0945,-0.0315 -0.17278,-0.102137 -0.26728,-0.133633 -0.0422,-0.01408 -0.0938,0.01992 -0.13363,0 -0.0563,-0.02817 -0.0725,-0.118356 -0.13363,-0.133636 -0.12965,-0.03241 -0.26987,0.02619 -0.40091,0 -0.29488,-0.05898 -0.37329,-0.341929 -0.66817,-0.400904 -0.2184,-0.04368 -0.44545,0 -0.66818,0 -0.35635,0 -0.71271,0 -1.06907,0 -0.26727,0 -0.53454,0 -0.80181,0 -0.13364,0 -0.27241,-0.03671 -0.40091,0 -0.19154,0.05473 -0.35143,0.188796 -0.53453,0.267268 -0.12948,0.05549 -0.26727,0.08909 -0.40091,0.133636 -0.13364,0.04454 -0.26196,0.110477 -0.4009,0.133636 -0.13182,0.02196 -0.2683,-0.01659 -0.40091,0 -1.32017,0.165021 -0.134,0.05948 -1.06908,0.267269 -0.2645,0.05878 -0.54228,0.05577 -0.80181,0.133633 -0.19081,0.05724 -0.33919,0.228203 -0.53453,0.267271 -0.26208,0.05241 -0.53454,0 -0.80181,0 -0.35636,0 -0.71272,0 -1.06908,0 -0.71272,0 -1.42544,0 -2.13816,0 -0.26727,0 -0.53453,0 -0.80181,0 -0.17817,0 -0.35724,0.01773 -0.53453,0 -0.94935,-0.09493 -1.8534,-0.455128 -2.80633,-0.53454 -0.26635,-0.0222 -0.53587,0.0266 -0.80181,0 -0.18275,-0.01828 -0.352293,-0.110852 -0.534538,-0.133633 -0.176803,-0.02209 -0.358151,0.02519 -0.534538,0 -0.139448,-0.01992 -0.261958,-0.110479 -0.400904,-0.133636 -0.131816,-0.02196 -0.26909,0.02196 -0.400905,0 -0.379894,-0.06332 -0.356584,-0.142634 -0.668173,-0.267269 -0.130789,-0.05232 -0.280115,-0.06116 -0.400905,-0.133635 -0.108037,-0.06482 -0.166476,-0.191675 -0.267269,-0.267269 -0.07968,-0.05976 -0.187587,-0.07387 -0.267269,-0.133636 -0.100795,-0.07559 -0.159234,-0.202446 -0.267271,-0.267269 -0.120788,-0.07247 -0.288213,-0.04912 -0.400905,-0.133636 -0.07968,-0.05976 -0.0632,-0.196836 -0.133633,-0.267268 -0.140864,-0.140865 -0.375171,-0.147744 -0.53454,-0.267269 -0.100793,-0.0756 -0.162439,-0.197382 -0.267269,-0.267272 -0.03706,-0.02471 -0.09138,0.01408 -0.133636,0 -0.96797,-0.322656 0.210691,0.03853 -0.400904,-0.267269 -0.08399,-0.04199 -0.450546,0.042 -0.534538,0 -0.05635,-0.02817 -0.07729,-0.10546 -0.133636,-0.133633 -0.04067,-0.02035 -0.34072,0 -0.400904,0 -0.178179,0 -0.35636,0 -0.534538,0 -0.08909,0 -0.182751,-0.02817 -0.267269,0 -0.0945,0.0315 -0.172776,0.102135 -0.267272,0.133633 -0.08451,0.02817 -0.178178,0 -0.267268,0 -0.178179,0 -0.35636,0 -0.534538,0 -0.08909,0 -0.178181,0 -0.267272,0 -0.04454,0 -0.09379,-0.01992 -0.133633,0 -0.05635,0.02817 -0.07729,0.105463 -0.133635,0.133636 -0.03984,0.01992 -0.08909,0 -0.133634,0 -0.08909,0 -0.182753,-0.02817 -0.267271,0 -0.05976,0.01992 -0.07729,0.105463 -0.133633,0.133633 -0.03984,0.01992 -0.08909,0 -0.133636,0 -0.08909,0 -0.178178,0 -0.267269,0 -0.356359,0 -0.712718,0 -1.069078,0 -1.202714,0 -2.405427,0 -3.608139,0 -0.08909,0 -0.182753,-0.02817 -0.267268,0 -0.495401,0.165135 0.162893,0.133636 -0.267272,0.133636 -0.04454,0 -0.113713,-0.03984 -0.133633,0 -0.03984,0.07968 0.03984,0.187584 0,0.267269 -0.01992,0.03984 -0.102137,-0.0315 -0.133636,0 -0.0315,0.0315 0.0315,0.102137 0,0.133636 -0.0315,0.0315 -0.102137,-0.0315 -0.133635,0 -0.08912,0.08912 0.08912,0.178146 0,0.267268 -0.0315,0.0315 -0.102135,-0.0315 -0.133634,0 -0.0315,0.0315 0,0.08909 0,0.133636 0,0.04454 0,0.08909 0,0.133633 0,0.267272 0,0.534541 0,0.801809 0,0.04455 0.0315,0.102138 0,0.133636 -0.063,0.063 -0.204274,-0.063 -0.267268,0 -0.0054,0.0054 0,0.485463 0,0.534538"
       id="path3721"
       inkscape:connector-curvature="0" />
    <path
       style="fill:none;stroke:#000000;stroke-width:2;stroke-linecap:butt;stroke-linejoin:miter;stroke-miterlimit:4;stroke-dasharray:none;stroke-opacity:1"
       d="m 88.065309,96.280584 c -0.421072,0.166735 -0.606563,0.538702 -0.935445,0.801809 -0.125413,0.10033 -0.272415,0.170902 -0.400902,0.267269 -0.151191,0.113392 -0.267272,0.267269 -0.400905,0.400905 -0.08909,0.08909 -0.197382,0.162438 -0.267271,0.267268 -0.05525,0.08288 -0.0632,0.196837 -0.133634,0.267269 -0.07043,0.07043 -0.196839,0.0632 -0.267268,0.133636 -0.07043,0.07043 -0.07839,0.184393 -0.133636,0.267269 -0.03494,0.05242 -0.08909,0.08909 -0.133636,0.133638 -0.08559,0.0856 -0.451167,0.40948 -0.534538,0.53453 -0.05525,0.0829 -0.07838,0.18439 -0.133635,0.26727 -0.06989,0.10483 -0.227428,0.14774 -0.267269,0.26727 -0.02817,0.0845 0.02817,0.182753 0,0.267273 -0.03984,0.11953 -0.210923,0.15458 -0.267269,0.26727 -0.01992,0.0398 0.01992,0.0938 0,0.13364 -0.02817,0.0563 -0.09869,0.0812 -0.133636,0.13363 -0.05525,0.0829 -0.07838,0.18439 -0.133636,0.26727 -0.03494,0.0524 -0.10546,0.0773 -0.133633,0.13363 -0.03984,0.0797 0.02817,0.18276 0,0.26727 -0.0315,0.0945 -0.07838,0.1844 -0.133635,0.26727 -0.03494,0.0524 -0.113713,0.0739 -0.133633,0.13364 -0.04009,0.12027 0.04009,0.28063 0,0.4009 -0.063,0.18899 -0.204275,0.34555 -0.267272,0.53454 -0.01408,0.0423 0.01408,0.0914 0,0.13364 -0.0315,0.0945 -0.102137,0.17277 -0.133633,0.26727 -0.02817,0.0845 0.02817,0.18275 0,0.26726 -0.0315,0.0945 -0.102137,0.17278 -0.133636,0.26727 -0.01408,0.0423 0.01408,0.0914 0,0.13364 -0.0315,0.0945 -0.102137,0.17277 -0.133636,0.26727 -0.0263,0.0789 0,0.59351 0,0.66817 0,0.0446 0,0.0891 0,0.13364 0,0.0445 -0.0315,0.10213 0,0.13363 0.0315,0.0315 0.102138,-0.0315 0.133636,0 0.048,0.048 -0.04323,0.44809 0,0.53454 0.01992,0.0398 0.08909,0 0.133636,0 0.04454,0.0891 0.102137,0.17278 0.133633,0.26727 0.02817,0.0845 -0.03984,0.18759 0,0.26727 0.02817,0.0563 0.105463,0.0773 0.133636,0.13363 0.01992,0.0399 -0.01992,0.0938 0,0.13364 0.02817,0.0564 0.113712,0.0739 0.133636,0.13363 0.02817,0.0845 -0.03984,0.18759 0,0.26727 0.01992,0.0399 0.102134,-0.0315 0.133633,0 0.063,0.063 -0.03984,0.18759 0,0.26727 0.02817,0.0564 0.08909,0.0891 0.133635,0.13364 0,0.0891 -0.02817,0.18275 0,0.26727 0.03984,0.11952 0.227428,0.14774 0.267269,0.26727 0.02817,0.0845 -0.02817,0.18275 0,0.26727 0.01992,0.0598 0.09869,0.0812 0.133636,0.13363 0.294418,0.0673 0.07064,0.27491 0.133633,0.40091 0.305798,0.61159 -0.05539,-0.56707 0.267272,0.4009 0.01407,0.0423 -0.01408,0.0914 0,0.13363 0.0315,0.0945 0.08909,0.17818 0.133633,0.26728 0.04454,0.0891 0.07838,0.18439 0.133635,0.26726 0.03494,0.0524 0.09869,0.0812 0.133634,0.13364 0.110503,0.16575 0.156768,0.36878 0.267271,0.53454 0.203864,0.3058 0.10578,-0.0836 0.267269,0.4009 0.02817,0.0845 -0.02817,0.18275 0,0.26727 0.322657,0.96797 -0.03853,-0.21069 0.267269,0.40091 0.164568,0.32913 -0.387906,-0.12064 0.133635,0.4009 0.07043,0.0704 0.196837,0.0632 0.267269,0.13364 0.0315,0.0315 -0.02471,0.0966 0,0.13363 0.06989,0.10483 0.197382,0.16244 0.267269,0.26727 0.02471,0.0371 -0.02471,0.0966 0,0.13363 0.06989,0.10484 0.197382,0.16244 0.267272,0.26727 0.02471,0.0371 -0.01992,0.0938 0,0.13364 0.05634,0.11269 0.210923,0.15458 0.267269,0.26727 0.01992,0.0398 -0.01992,0.0938 0,0.13363 0.02817,0.0564 0.08909,0.0891 0.133633,0.13364 0.08909,0.0891 0.197381,0.16243 0.267271,0.26727 0.02471,0.0371 0,0.0891 0,0.13363 0.04454,0.0891 0.0632,0.19684 0.133633,0.26727 0.0315,0.0315 0.113715,-0.0398 0.133636,0 0.03984,0.0797 -0.04942,0.19314 0,0.26727 0.05525,0.0829 0.196837,0.0632 0.267269,0.13364 0.0315,0.0315 -0.0315,0.10213 0,0.13363 0.0315,0.0315 0.102137,-0.0315 0.133636,0 0.0315,0.0315 -0.0315,0.10214 0,0.13364 0.0315,0.0315 0.102137,-0.0315 0.133635,0 0.0315,0.0315 -0.03984,0.11371 0,0.13363 0.423424,0.21171 0.12436,-0.27654 0.534538,0.13363 0.0315,0.0315 -0.0315,0.10214 0,0.13364 0.0061,0.006 0.605166,0 0.668173,0 0.129257,0 0.762175,0.0198 0.80181,0 0.611592,-0.3058 -0.567069,0.0554 0.400904,-0.26727 0.04226,-0.0141 0.09657,0.0247 0.133633,0 0.104834,-0.0699 0.159235,-0.20245 0.267272,-0.26727 0.120787,-0.0725 0.274913,-0.0706 0.400904,-0.13363 0.112689,-0.0563 0.154578,-0.21093 0.267269,-0.26727 0.125992,-0.063 0.288214,-0.0491 0.400905,-0.13364 0.07968,-0.0598 0.0632,-0.19684 0.133633,-0.26727 0.0315,-0.0315 0.09657,0.0247 0.133636,0 0.10483,-0.0699 0.162438,-0.19738 0.267269,-0.26727 0.03707,-0.0247 0.08909,0 0.133635,0 0.08909,0 0.187585,0.0399 0.267269,0 0.112692,-0.0563 0.166476,-0.19167 0.267269,-0.26727 0.414327,-0.31074 0.119716,-0.0633 0.400905,-0.13363 1.112313,-0.27808 -0.161312,0.009 0.668173,-0.26727 0.08452,-0.0282 0.187587,0.0398 0.267272,0 0.112688,-0.0564 0.14774,-0.22743 0.267268,-0.26727 0.608344,0 0.0076,0.063 0.400905,-0.13364 0.03984,-0.0199 0.102137,0.0315 0.133633,0 0.0315,-0.0315 -0.01992,-0.0938 0,-0.13363 0.02817,-0.0563 0.08909,-0.0891 0.133636,-0.13364 0.08909,-0.0891 0.166476,-0.19167 0.267269,-0.26726 0.07968,-0.0598 0.196839,-0.0632 0.267271,-0.13364 0.07043,-0.0704 0.0632,-0.19684 0.133633,-0.26727 0.07043,-0.0704 0.181859,-0.0824 0.267269,-0.13363 0.137721,-0.0826 0.257252,-0.19545 0.400905,-0.26727 0.125992,-0.063 0.274912,-0.0706 0.400904,-0.13364 0.143653,-0.0718 0.257252,-0.19544 0.400905,-0.26727 0.125992,-0.063 0.274913,-0.0706 0.400905,-0.13363 0.287305,-0.14366 0.522912,-0.37517 0.801809,-0.53454 0.172963,-0.0988 0.361574,-0.16843 0.534538,-0.26727 0.332037,-0.0388 0.423597,-0.38779 0.668177,-0.53454 0.12079,-0.0725 0.27491,-0.0706 0.4009,-0.13364 0.11269,-0.0563 0.15029,-0.22047 0.26727,-0.26727 0.17053,-0.0682 0.3603,-0.0756 0.53454,-0.13363 0.0945,-0.0315 0.17818,-0.0891 0.26727,-0.13363 0.0891,-0.0446 0.19684,-0.0632 0.26727,-0.13364 0.0704,-0.0704 0.0508,-0.21202 0.13363,-0.26727 0.40091,-0.26727 0.13364,0.13364 0.40091,0 0.0563,-0.0282 0.0773,-0.10546 0.13363,-0.13363 0.0797,-0.0399 0.20428,0.063 0.26727,0 0.0315,-0.0315 -0.0199,-0.0938 0,-0.13364 0.14774,-0.29547 0.0829,-0.0415 0.26727,-0.13363 0.0563,-0.0282 0.0773,-0.10547 0.13364,-0.13364 0.0398,-0.0199 0.0891,0 0.13363,0 0.0891,0 0.18275,0.0282 0.26727,0 0.11953,-0.0398 0.15458,-0.21092 0.26727,-0.26727 0.0398,-0.0199 0.0938,0.0199 0.13364,0 0.0563,-0.0282 0.0773,-0.10546 0.13363,-0.13363 0.0398,-0.0199 0.0914,0.0141 0.13364,0 0.0945,-0.0315 0.17277,-0.10214 0.26726,-0.13364 0.24686,-0.0823 0.0634,0.20392 0.40091,-0.13363 0.0315,-0.0315 -0.0315,-0.10214 0,-0.13364 0.0315,-0.0315 0.0914,0.0141 0.13364,0 0.0945,-0.0315 0.18439,-0.0784 0.26726,-0.13363 0.0549,-0.0366 0.36431,-0.346 0.40091,-0.40091 0.0553,-0.0829 0.054,-0.2075 0.13363,-0.26726 0.11269,-0.0845 0.28822,-0.0491 0.40091,-0.13364 0.0797,-0.0598 0.0632,-0.19684 0.13363,-0.26727 0.14087,-0.14086 0.37517,-0.14774 0.53454,-0.26727 0.83924,-0.62943 -0.42191,0.11951 0.66817,-0.53454 0.17083,-0.10249 0.36879,-0.15676 0.53454,-0.26727 0.15725,-0.10483 0.24366,-0.29607 0.40091,-0.4009 0.0371,-0.0247 0.0966,0.0247 0.13363,0 0.10483,-0.0699 0.15458,-0.21093 0.26727,-0.26727 0.42343,-0.21171 0.12436,0.27654 0.53454,-0.13364 0.0704,-0.0704 0.0632,-0.19683 0.13364,-0.26727 0.0704,-0.0704 0.18439,-0.0784 0.26727,-0.13363 0.0524,-0.0349 0.0773,-0.10546 0.13363,-0.13363 0.0398,-0.0199 0.0938,0.0199 0.13363,0 0.14366,-0.0718 0.26319,-0.18464 0.40091,-0.26727 0.17082,-0.1025 0.34958,-0.19329 0.53454,-0.26727 0.13079,-0.0523 0.26727,-0.0891 0.4009,-0.13364 0.13364,-0.0445 0.26278,-0.10601 0.40091,-0.13363 0.0874,-0.0175 0.18161,0.0245 0.26727,0 0.23065,-0.0659 0.4406,-0.19142 0.66817,-0.26727 0.0423,-0.0141 0.0914,0.0141 0.13364,0 0.11797,-0.0393 0.69606,-0.33041 0.8018,-0.40091 0.0524,-0.0349 0.0891,-0.0891 0.13364,-0.13363 0.0891,-0.0891 0.17818,-0.17818 0.26727,-0.26727 0.0445,-0.0446 0.0987,-0.0812 0.13363,-0.13364 0.0553,-0.0829 0.0632,-0.19683 0.13364,-0.26727 0.0315,-0.0315 0.0938,0.0199 0.13363,0 0.12232,-0.0611 0.23472,-0.30324 0.26727,-0.4009 0.0132,-0.0397 0.0137,-0.640743 0,-0.668173 -0.0802,-0.16037 -0.32072,-0.24055 -0.4009,-0.40091 -0.16832,-0.33662 0.50755,0.11565 -0.26727,-0.4009 -0.0371,-0.0247 -0.0938,0.0199 -0.13364,0 -0.11844,-0.0592 -0.27925,-0.319804 -0.4009,-0.400904 -0.0829,-0.05525 -0.19684,-0.0632 -0.26727,-0.133633 -0.0704,-0.07043 -0.0632,-0.196839 -0.13363,-0.267269 -0.0315,-0.0315 -0.10214,0.0315 -0.13364,0 -0.0315,-0.0315 0.0315,-0.102137 0,-0.133636 -0.0704,-0.07043 -0.19684,-0.0632 -0.26727,-0.133635 -0.0315,-0.0315 0.0398,-0.113713 0,-0.133633 -0.0797,-0.03984 -0.18275,0.02817 -0.26727,0 -0.0598,-0.01992 -0.0773,-0.105463 -0.13363,-0.133636 -0.0399,-0.01992 -0.0914,0.01408 -0.13364,0 -0.0945,-0.0315 -0.17278,-0.102137 -0.26727,-0.133636 -0.0423,-0.01408 -0.0914,0.01408 -0.13363,0 -0.96797,-0.322657 0.21069,0.03853 -0.40091,-0.267269 -0.0398,-0.01992 -0.0938,0.01992 -0.13363,0 -0.0563,-0.02817 -0.0773,-0.10546 -0.13364,-0.133633 -0.0797,-0.03984 -0.18275,0.02817 -0.26727,0 -0.0945,-0.0315 -0.17277,-0.102137 -0.26727,-0.133636 -0.0422,-0.01407 -0.0938,0.01992 -0.13363,0 -0.0563,-0.02817 -0.0739,-0.113712 -0.13363,-0.133635 -0.0845,-0.02817 -0.18276,0.02817 -0.26728,0 -0.0598,-0.01992 -0.0773,-0.105461 -0.13363,-0.133633 -0.0797,-0.03984 -0.18275,0.02817 -0.26727,0 -0.0945,-0.0315 -0.17064,-0.109477 -0.26727,-0.133636 -0.13843,-0.03461 -0.3813,0 -0.53454,0 -0.31181,0 -0.62363,0 -0.93544,0 -0.1399,0 -0.69314,-0.02717 -0.80181,0 -0.0966,0.02416 -0.17277,0.102137 -0.26727,0.133636 -0.0423,0.01408 -0.0914,-0.01408 -0.13363,0 -0.0945,0.0315 -0.17278,0.102137 -0.26727,0.133633 -0.0423,0.01408 -0.0938,-0.01992 -0.13364,0 -0.0563,0.02817 -0.0773,0.105463 -0.13363,0.133635 -0.0398,0.01992 -0.0891,0 -0.13364,0 -0.0891,0 -0.18084,-0.02162 -0.26727,0 -0.0966,0.02416 -0.17277,0.102138 -0.26727,0.133636 -0.0423,0.01408 -0.0938,-0.01992 -0.13363,0 -0.0563,0.02817 -0.0739,0.113713 -0.13364,0.133633 -0.0845,0.02817 -0.18275,-0.02817 -0.26726,0 -0.11953,0.03984 -0.14775,0.227428 -0.26728,0.267269 -0.0611,0.02037 -0.47507,-0.02973 -0.53453,0 -0.0564,0.02817 -0.0773,0.105463 -0.13364,0.133636 -0.0797,0.03984 -0.18275,-0.02817 -0.26727,0 -0.0945,0.0315 -0.17277,0.102137 -0.26727,0.133636 -0.0423,0.01408 -0.0891,0 -0.13363,0 -0.22779,0 -0.2391,-0.01408 -0.53454,0.133633 -0.11269,0.05634 -0.14774,0.227428 -0.26727,0.267271 -0.0612,0.0204 -0.59359,0 -0.66818,0 -0.35636,0 -0.71271,0 -1.06907,0 -0.0923,0 -0.49391,0.02032 -0.53454,0 -0.0564,-0.02817 -0.0739,-0.113715 -0.13364,-0.133636 -0.0845,-0.02817 -0.17818,0 -0.26727,0 -0.13363,0 -0.267269,0 -0.400902,0 -0.267269,0 -0.53454,0 -0.801809,0 -0.04553,0 -0.462214,0.0241 -0.534538,0 -0.242713,-0.0809 -0.248007,-0.114371 -0.400904,-0.267268 -0.04454,-0.04455 -0.07387,-0.113716 -0.133636,-0.133636 -0.169037,-0.05635 -0.365503,0.05635 -0.534538,0 -0.05976,-0.01992 -0.08122,-0.09869 -0.133635,-0.133636 -0.08288,-0.05525 -0.172776,-0.102134 -0.267269,-0.133633 -0.142002,-0.04733 -0.392539,0.04733 -0.534541,0 -0.05976,-0.01992 -0.07387,-0.113715 -0.133633,-0.133636 -0.08452,-0.02817 -0.178181,0 -0.267271,0 -0.04455,0 -0.09379,0.01992 -0.133633,0 -0.05635,-0.02817 -0.07387,-0.113712 -0.133636,-0.133633 -0.12351,-0.04117 -0.54352,0.04155 -0.668174,0 -0.09449,-0.0315 -0.172775,-0.102137 -0.267268,-0.133636 -0.04226,-0.01407 -0.0938,0.01992 -0.133636,0 -0.05635,-0.02817 -0.07387,-0.113712 -0.133636,-0.133635 -0.08452,-0.02817 -0.180837,0.02162 -0.267269,0 -0.900128,-0.225031 -0.0021,-0.0021 -0.267269,-0.267269 -0.06682,-0.06682 -0.334086,0.06682 -0.400904,0 -0.0315,-0.0315 0.0315,-0.102137 0,-0.133636 -0.063,-0.063 -0.187584,0.03984 -0.267269,0 -0.05635,-0.02817 -0.07729,-0.10546 -0.133636,-0.133633 -0.07968,-0.03984 -0.187584,0.03984 -0.267269,0 -0.556156,-0.27808 0.142859,0.0092 -0.133635,-0.267269 -0.0315,-0.0315 -0.102137,0.0315 -0.133633,0 -0.0315,-0.0315 0.0315,-0.102137 0,-0.133636 -0.063,-0.063 -0.187587,0.03984 -0.267272,0 -0.112689,-0.05635 -0.147743,-0.227428 -0.267269,-0.267268 -0.08452,-0.02817 -0.18275,0.02817 -0.267269,0 -0.05976,-0.01992 -0.07729,-0.105463 -0.133635,-0.133636 -0.03984,-0.01992 -0.08909,0 -0.133634,0 -0.08909,-0.04454 -0.184393,-0.07838 -0.267271,-0.133636 -0.05241,-0.03494 -0.07729,-0.10546 -0.133633,-0.133633 -0.119528,-0.05976 -0.281379,0.05976 -0.400905,0 -0.03984,-0.01992 0.0315,-0.102137 0,-0.133636 -0.0315,-0.0315 -0.09379,0.01992 -0.133635,0 -0.05635,-0.02817 -0.07729,-0.105463 -0.133634,-0.133633 -0.04833,-0.02416 -0.575228,0 -0.668176,0 -0.09472,0 -0.767257,-0.01728 -0.801806,0 -0.05635,0.02817 -0.07729,0.10546 -0.133636,0.133633 -0.07968,0.03984 -0.187584,-0.03984 -0.267269,0 -0.556157,0.278077 0.142859,-0.0092 -0.133636,0.267269 -0.0315,0.0315 -0.102137,-0.0315 -0.133633,0 -0.0315,0.0315 0.01992,0.0938 0,0.133636 -0.02817,0.05635 -0.105463,0.07729 -0.133635,0.133636 -0.01992,0.03984 0.0315,0.102137 0,0.133633 -0.0315,0.0315 -0.133636,-0.04455 -0.133636,0 0,0.183663 0.173477,0.35525 0.133636,0.53454 -0.05635,0.253553 -0.238647,0.465352 -0.400905,0.668173 -0.02783,0.03478 -0.08909,0 -0.133636,0 -0.04454,0 -0.133633,0.04455 -0.133633,0 0,-0.04454 0.165132,-0.0315 0.133633,0 -0.07043,0.07043 -0.178178,0.08909 -0.267269,0.133636"
       id="path3727"
       inkscape:connector-curvature="0" />
  </g>
</svg>
